<?xml version="1.0" encoding="utf-8"?>
<!-- Generator: Adobe Illustrator 28.0.0, SVG Export Plug-In . SVG Version: 6.00 Build 0)  -->
<svg version="1.1" id="Layer_1" xmlns="http://www.w3.org/2000/svg" xmlns:xlink="http://www.w3.org/1999/xlink" x="0px" y="0px"
	 viewBox="0 0 150 113.48" style="enable-background:new 0 0 150 113.48;" xml:space="preserve">
<style type="text/css">
	.st0{fill:#FFFFFF;}
	.st1{fill:#E82122;}
</style>
<g>
	<path class="st0" d="M11.76,108.35H8.81c-1.36,0-2.41-0.38-3.16-1.13c-0.75-0.75-1.12-1.8-1.12-3.14V94.9
		c0-1.36,0.37-2.41,1.12-3.16c0.74-0.74,1.79-1.12,3.16-1.12h2.95c1.36,0,2.41,0.37,3.16,1.12c0.75,0.75,1.12,1.79,1.12,3.16v0.99
		c0,0.33-0.16,0.5-0.46,0.5h-1.74c-0.31,0-0.47-0.17-0.47-0.5v-0.88c0-1.36-0.66-2.04-1.98-2.04H9.2c-1.32,0-1.98,0.68-1.98,2.04
		v8.96c0,1.36,0.66,2.04,1.98,2.04h2.17c1.32,0,1.98-0.68,1.98-2.04v-2.48c0-0.18-0.1-0.28-0.3-0.28h-2.23
		c-0.31,0-0.47-0.16-0.47-0.46v-1.41c0-0.31,0.16-0.46,0.47-0.46h4.63c0.39,0,0.57,0.2,0.57,0.58v4.63c0,1.34-0.38,2.39-1.13,3.14
		C14.14,107.97,13.1,108.35,11.76,108.35z"/>
	<path class="st0" d="M23.19,108.35h-1.08c-1.36,0-2.41-0.38-3.16-1.13c-0.75-0.75-1.12-1.8-1.12-3.14v-5.51
		c0-1.36,0.37-2.41,1.12-3.16c0.75-0.75,1.79-1.12,3.16-1.12h6.17c0.33,0,0.5,0.16,0.5,0.46v13.11c0,0.31-0.17,0.46-0.5,0.46h-1.74
		c-0.31,0-0.47-0.16-0.47-0.46v-0.99h-0.11C25.53,107.86,24.61,108.35,23.19,108.35z M26.09,103.66v-6.75c0-0.18-0.1-0.28-0.3-0.28
		H22.5c-1.32,0-1.98,0.68-1.98,2.04v5.29c0,1.36,0.66,2.04,1.98,2.04h1.32C25.33,106.01,26.09,105.22,26.09,103.66z"/>
	<path class="st0" d="M33.84,108.35H32.1c-0.31,0-0.46-0.16-0.46-0.46V94.77c0-0.31,0.16-0.46,0.46-0.46h1.74
		c0.31,0,0.47,0.16,0.47,0.46v0.99h0.11c0.54-0.98,1.5-1.46,2.92-1.46h0.91c1.6,0,2.74,0.61,3.42,1.82
		c0.29-0.59,0.75-1.04,1.35-1.35s1.26-0.46,1.95-0.46h0.88c1.34,0,2.36,0.37,3.07,1.12c0.71,0.75,1.06,1.79,1.06,3.16v9.31
		c0,0.31-0.16,0.46-0.47,0.46h-1.76c-0.31,0-0.47-0.16-0.47-0.46v-9.2c0-1.36-0.66-2.04-1.98-2.04h-0.8c-1.53,0-2.28,0.8-2.28,2.39
		v8.85c0,0.31-0.17,0.46-0.5,0.46h-1.74c-0.31,0-0.47-0.16-0.47-0.46v-9.2c0-1.36-0.66-2.04-1.98-2.04h-0.96
		c-1.5,0-2.26,0.78-2.26,2.34v8.9C34.31,108.19,34.15,108.35,33.84,108.35z"/>
	<path class="st0" d="M62.67,108.35h-5.95c-1.36,0-2.41-0.38-3.16-1.13c-0.75-0.75-1.12-1.8-1.12-3.14v-5.51
		c0-1.36,0.37-2.41,1.12-3.16c0.75-0.75,1.79-1.12,3.16-1.12h2.26c1.36,0,2.42,0.37,3.16,1.12c0.76,0.75,1.13,1.79,1.13,3.16v3.49
		c0,0.33-0.17,0.5-0.5,0.5H55.4c-0.2,0-0.31,0.09-0.31,0.28v1.18c0,1.34,0.67,2.01,2.02,2.01h5.57c0.33,0,0.5,0.17,0.5,0.5v1.38
		C63.17,108.2,63,108.35,62.67,108.35z M55.4,100.69h4.94c0.18,0,0.28-0.09,0.28-0.28v-1.76c0-0.7-0.16-1.2-0.46-1.53
		c-0.31-0.32-0.82-0.48-1.52-0.48h-1.51c-0.7,0-1.2,0.16-1.51,0.48c-0.31,0.32-0.47,0.83-0.47,1.53v1.76
		C55.12,100.6,55.22,100.69,55.4,100.69z"/>
	<path class="st0" d="M65.33,104.05v-0.72c0-0.31,0.16-0.46,0.47-0.46h1.76c0.31,0,0.46,0.16,0.46,0.46v0.5
		c0,0.77,0.17,1.33,0.51,1.67c0.34,0.34,0.91,0.51,1.69,0.51h1.9c0.79,0,1.36-0.18,1.71-0.54c0.35-0.36,0.53-0.94,0.53-1.75v-0.63
		c0-0.59-0.23-1.05-0.68-1.39c-0.45-0.34-1.01-0.56-1.67-0.66c-0.66-0.1-1.39-0.24-2.18-0.43c-0.79-0.18-1.51-0.39-2.18-0.63
		c-0.66-0.24-1.22-0.69-1.67-1.35s-0.68-1.5-0.68-2.53v-1.16c0-1.34,0.38-2.39,1.14-3.16c0.76-0.76,1.81-1.14,3.16-1.14h2.92
		c1.36,0,2.42,0.38,3.18,1.14c0.76,0.76,1.14,1.81,1.14,3.16v0.61c0,0.31-0.16,0.47-0.46,0.47h-1.76c-0.31,0-0.46-0.16-0.46-0.47
		v-0.36c0-0.79-0.17-1.35-0.51-1.69s-0.91-0.51-1.69-0.51h-1.73c-0.79,0-1.35,0.18-1.69,0.54c-0.34,0.36-0.51,0.97-0.51,1.83v0.85
		c0,0.83,0.6,1.39,1.79,1.68c0.54,0.13,1.12,0.24,1.75,0.33c0.64,0.09,1.28,0.23,1.91,0.41c0.65,0.18,1.23,0.43,1.76,0.73
		c0.54,0.3,0.96,0.76,1.29,1.38c0.33,0.61,0.5,1.36,0.5,2.24v1.08c0,1.34-0.38,2.39-1.14,3.16c-0.76,0.76-1.81,1.14-3.16,1.14h-3.09
		c-1.34,0-2.39-0.38-3.16-1.14C65.72,106.44,65.33,105.39,65.33,104.05z"/>
	<path class="st0" d="M82.1,108.35h-1.74c-0.31,0-0.46-0.16-0.46-0.46V89.45c0-0.31,0.16-0.47,0.46-0.47h1.74
		c0.31,0,0.46,0.16,0.46,0.47v6.31h0.11c0.44-0.98,1.37-1.46,2.79-1.46h1.21c1.34,0,2.37,0.37,3.09,1.1
		c0.72,0.73,1.07,1.79,1.07,3.17v9.31c0,0.31-0.17,0.46-0.5,0.46h-1.74c-0.31,0-0.46-0.16-0.46-0.46v-9.2
		c0-1.36-0.67-2.04-2.01-2.04h-1.3c-1.5,0-2.26,0.78-2.26,2.34v8.9C82.57,108.19,82.41,108.35,82.1,108.35z"/>
	<path class="st0" d="M98.62,108.35h-1.07c-1.36,0-2.41-0.38-3.16-1.13c-0.75-0.75-1.12-1.8-1.12-3.14v-5.51
		c0-1.36,0.37-2.41,1.12-3.16c0.75-0.75,1.79-1.12,3.16-1.12h6.17c0.33,0,0.5,0.16,0.5,0.46v13.11c0,0.31-0.17,0.46-0.5,0.46h-1.74
		c-0.31,0-0.46-0.16-0.46-0.46v-0.99h-0.11C100.96,107.86,100.03,108.35,98.62,108.35z M101.51,103.66v-6.75
		c0-0.18-0.1-0.28-0.31-0.28h-3.28c-1.32,0-1.98,0.68-1.98,2.04v5.29c0,1.36,0.66,2.04,1.98,2.04h1.32
		C100.76,106.01,101.51,105.22,101.51,103.66z"/>
	<path class="st0" d="M111.29,108.35h-5.07c-0.31,0-0.46-0.16-0.46-0.46v-1.35c0-0.29,0.16-0.44,0.46-0.44h4.63
		c1.2,0,1.79-0.41,1.79-1.24v-0.33c0-0.73-0.43-1.29-1.3-1.68l-3-1.43c-0.94-0.44-1.61-0.93-2.04-1.46
		c-0.43-0.54-0.64-1.23-0.64-2.09c0-2.37,1.31-3.55,3.94-3.55h4.57c0.29,0,0.44,0.16,0.44,0.46v1.35c0,0.31-0.15,0.46-0.44,0.46
		h-4.02c-0.55,0-0.98,0.09-1.27,0.29c-0.29,0.2-0.44,0.45-0.44,0.76v0.3c0,0.59,0.47,1.1,1.41,1.54l3.03,1.54
		c0.95,0.43,1.61,0.92,1.97,1.5c0.36,0.57,0.54,1.33,0.54,2.24C115.4,107.16,114.03,108.35,111.29,108.35z"/>
	<path class="st0" d="M118.09,96.64h-1.32c-0.18,0-0.31-0.03-0.37-0.09s-0.09-0.18-0.09-0.35v-1.43c0-0.31,0.16-0.46,0.46-0.46h1.32
		c0.18,0,0.28-0.09,0.28-0.28v-2.48c0-0.31,0.17-0.47,0.5-0.47h1.74c0.31,0,0.46,0.16,0.46,0.47v2.48c0,0.18,0.1,0.28,0.3,0.28h2.57
		c0.33,0,0.5,0.16,0.5,0.46v1.43c0,0.29-0.17,0.44-0.5,0.44h-2.57c-0.2,0-0.3,0.09-0.3,0.28V104c0,1.34,0.69,2.02,2.06,2.02h1.08
		c0.33,0,0.5,0.16,0.5,0.46v1.43c0,0.29-0.17,0.44-0.5,0.44h-1.49c-1.36,0-2.42-0.37-3.2-1.1c-0.77-0.73-1.16-1.77-1.16-3.12v-7.22
		C118.36,96.73,118.27,96.64,118.09,96.64z"/>
	<path class="st0" d="M128.96,108.35h-1.74c-0.31,0-0.46-0.16-0.46-0.46V94.77c0-0.31,0.16-0.46,0.46-0.46h1.74
		c0.31,0,0.46,0.16,0.46,0.46v1.05h0.11c0.18-0.46,0.54-0.83,1.06-1.1s1.11-0.41,1.75-0.41h1.02c0.31,0,0.46,0.16,0.46,0.46v1.43
		c0,0.35-0.16,0.5-0.46,0.44h-1.65c-1.53,0-2.29,0.83-2.29,2.5v8.74C129.42,108.19,129.26,108.35,128.96,108.35z"/>
	<path class="st0" d="M139.67,108.35h-1.07c-1.36,0-2.41-0.38-3.16-1.13c-0.75-0.75-1.12-1.8-1.12-3.14v-5.51
		c0-1.36,0.37-2.41,1.12-3.16c0.75-0.75,1.79-1.12,3.16-1.12h6.17c0.33,0,0.5,0.16,0.5,0.46v13.11c0,0.31-0.17,0.46-0.5,0.46h-1.74
		c-0.31,0-0.46-0.16-0.46-0.46v-0.99h-0.11C142.02,107.86,141.09,108.35,139.67,108.35z M142.57,103.66v-6.75
		c0-0.18-0.1-0.28-0.31-0.28h-3.28c-1.32,0-1.98,0.68-1.98,2.04v5.29c0,1.36,0.66,2.04,1.98,2.04h1.32
		C141.81,106.01,142.57,105.22,142.57,103.66z"/>
</g>
<polygon class="st1" points="145.35,76.18 145.35,15.05 145.45,15.05 145.45,6.14 4.73,6.14 4.73,15.05 4.73,15.05 4.73,79.92 
	4.86,79.92 4.86,84.54 74.91,84.54 74.91,81.03 74.91,76.18 74.91,32.27 74.91,23.43 74.91,23.37 22.17,23.37 22.17,23.5 
	21.91,23.5 21.91,67.43 22.17,67.43 30.27,67.43 57.58,67.43 57.58,63.67 57.58,58.53 57.58,49.85 57.58,43.39 57.58,40.94 
	39.88,40.94 39.88,49.85 49.22,49.85 49.22,58.53 30.27,58.53 30.27,32.27 66.56,32.27 66.56,76.18 13.08,76.18 13.08,15.05 
	137,15.05 137,76.18 92.21,76.18 92.21,67.43 128.21,67.43 128.21,63.67 128.21,58.53 128.21,49.85 128.21,43.39 128.21,40.94 
	92.21,40.94 92.21,32.27 128.21,32.27 128.21,23.37 83.85,23.37 83.85,29.08 83.85,32.27 83.85,40.94 83.85,49.37 83.85,49.85 
	119.85,49.85 119.85,58.53 83.85,58.53 83.85,61.87 83.85,67.43 83.85,76.18 83.85,82.14 83.85,84.54 145.58,84.54 145.58,76.18 "/>
</svg>
